# xmcd
#
# Track frame offsets: 
#        150
#        21175
#        36692
#        58416
#        71949
#        78395
#        91115
#        93385
#        125836
#        130635
#        147206
#        172473
#        175021
#        193286
#        203832
#        225412
#        242221
#        249271
#        261665
#        279510
#        294605
#        303762
#
# Disc length: 4243 seconds
#
# Revision: 0
# Processed by: cddbd v1.4PL0 Copyright (c) Steve Scherf et al.
# Submitted via: ExactAudioCopy v0.95a3
#
DISCID=55109116
DTITLE=Mickey Newbury - Flying Solo
DYEAR=1997
DGENRE=Country
TTITLE0=Juble Lee's Revival
TTITLE1=When The Baby In My Lady Gets The Blues
TTITLE2=You're My Lady Now
TTITLE3=Lie To Me Darlin'
TTITLE4=You're My Lady Now (Reprise)
TTITLE5=She Even Woke Me Up To Say Goodbye
TTITLE6=Intro
TTITLE7=Frisco Depot
TTITLE8=Mabel Shuffle
TTITLE9=Poison Red Berries
TTITLE10=San Francisco Mabel Joy
TTITLE11=Intro (If You Ever Get To Houston)
TTITLE12=Jesse
TTITLE13=Maggie
TTITLE14=33rd Of August
TTITLE15=Willow Tree
TTITLE16=Working Man
TTITLE17=Song Of Sorrow
TTITLE18=Jesse
TTITLE19=One Man I Would Shoot
TTITLE20=Maggie
TTITLE21=Maggie's Gone
EXTD=
EXTT0=
EXTT1=
EXTT2=
EXTT3=
EXTT4=
EXTT5=
EXTT6=
EXTT7=
EXTT8=
EXTT9=
EXTT10=
EXTT11=
EXTT12=
EXTT13=
EXTT14=
EXTT15=
EXTT16=
EXTT17=
EXTT18=
EXTT19=
EXTT20=
EXTT21=
PLAYORDER=
